<svg viewBox="0 0 580 54" xmlns="http://www.w3.org/2000/svg" shape-rendering="geometricPrecision" role="img" aria-label="Gizzi Code">
  <!-- Gizzi lockup: mark + GIZZI wordmark. One coral set per lockup (the mark keeps its coral; the wordmark core is ink). -->
  <svg x="0" y="0" width="54" height="54" viewBox="6 4 84 84"><mask id="lc"><rect width="96" height="96" fill="#fff"/><rect x="24" y="29" width="48" height="31" rx="9" fill="#000"/></mask>
  <rect x="44" y="8" width="8" height="5" rx="2" fill="#D97757"/>
  <rect x="24" y="15" width="17" height="7" rx="3" fill="#141413"/>
  <rect x="55" y="15" width="17" height="7" rx="3" fill="#141413"/>
  <g mask="url(#lc)" fill="#141413"><path d="M25 23H71L78 30V56L72 63V69L64 76H32L24 69V63L18 56V30L25 23Z"/><path d="M18 40H14V44H10V48H14V52H18V56H22V40H18Z"/><path d="M78 40H82V44H86V48H82V52H78V56H74V40H78Z"/></g>
  <rect x="33" y="36" width="8" height="10" rx="2" fill="#141413"/>
  <rect x="59" y="36" width="8" height="10" rx="2" fill="#141413"/>
  <path d="M44.5 52L48 42L51.5 52H49.6L48.8 49.5H47.2L46.4 52H44.5ZM47.75 47.7H48.25L48 46.65L47.75 47.7Z" fill="#D97757"/>
  <rect x="46" y="47.2" width="4" height="1.4" rx="0.7" fill="#D97757"/><rect x="24" y="74" width="8" height="12" rx="1" fill="#141413"/><rect x="36" y="74" width="8" height="12" rx="1" fill="#141413"/><rect x="52" y="74" width="8" height="12" rx="1" fill="#141413"/><rect x="64" y="74" width="8" height="12" rx="1" fill="#141413"/></svg>
  <g transform="translate(70,2)"><rect x="10.75" y="0.75" width="8.5" height="8.5" rx="1.5" fill="#141413"/>
  <rect x="20.75" y="0.75" width="8.5" height="8.5" rx="1.5" fill="#141413"/>
  <rect x="30.75" y="0.75" width="8.5" height="8.5" rx="1.5" fill="#141413"/>
  <rect x="0.75" y="10.75" width="8.5" height="8.5" rx="1.5" fill="#141413"/>
  <rect x="0.75" y="20.75" width="8.5" height="8.5" rx="1.5" fill="#141413"/>
  <rect x="20.75" y="20.75" width="8.5" height="8.5" rx="1.5" fill="#141413"/>
  <rect x="30.75" y="20.75" width="8.5" height="8.5" rx="1.5" fill="#141413"/>
  <rect x="40.75" y="20.75" width="8.5" height="8.5" rx="1.5" fill="#141413"/>
  <rect x="0.75" y="30.75" width="8.5" height="8.5" rx="1.5" fill="#141413"/>
  <rect x="40.75" y="30.75" width="8.5" height="8.5" rx="1.5" fill="#141413"/>
  <rect x="10.75" y="40.75" width="8.5" height="8.5" rx="1.5" fill="#141413"/>
  <rect x="20.75" y="40.75" width="8.5" height="8.5" rx="1.5" fill="#141413"/>
  <rect x="30.75" y="40.75" width="8.5" height="8.5" rx="1.5" fill="#141413"/>
  <rect x="60.75" y="0.75" width="8.5" height="8.5" rx="1.5" fill="#141413"/>
  <rect x="70.75" y="0.75" width="8.5" height="8.5" rx="1.5" fill="#141413"/>
  <rect x="80.75" y="0.75" width="8.5" height="8.5" rx="1.5" fill="#141413"/>
  <rect x="70.75" y="10.75" width="8.5" height="8.5" rx="1.5" fill="#141413"/>
  <rect x="70.75" y="20.75" width="8.5" height="8.5" rx="1.5" fill="#141413"/>
  <rect x="70.75" y="30.75" width="8.5" height="8.5" rx="1.5" fill="#141413"/>
  <rect x="60.75" y="40.75" width="8.5" height="8.5" rx="1.5" fill="#141413"/>
  <rect x="70.75" y="40.75" width="8.5" height="8.5" rx="1.5" fill="#141413"/>
  <rect x="80.75" y="40.75" width="8.5" height="8.5" rx="1.5" fill="#141413"/>
  <rect x="100.75" y="0.75" width="8.5" height="8.5" rx="1.5" fill="#141413"/>
  <rect x="110.75" y="0.75" width="8.5" height="8.5" rx="1.5" fill="#141413"/>
  <rect x="120.75" y="0.75" width="8.5" height="8.5" rx="1.5" fill="#141413"/>
  <rect x="130.75" y="0.75" width="8.5" height="8.5" rx="1.5" fill="#141413"/>
  <rect x="140.75" y="0.75" width="8.5" height="8.5" rx="1.5" fill="#141413"/>
  <rect x="130.75" y="10.75" width="8.5" height="8.5" rx="1.5" fill="#141413"/>
  <rect x="120.75" y="20.75" width="8.5" height="8.5" rx="1.5" fill="#141413"/>
  <rect x="110.75" y="30.75" width="8.5" height="8.5" rx="1.5" fill="#141413"/>
  <rect x="100.75" y="40.75" width="8.5" height="8.5" rx="1.5" fill="#141413"/>
  <rect x="110.75" y="40.75" width="8.5" height="8.5" rx="1.5" fill="#141413"/>
  <rect x="120.75" y="40.75" width="8.5" height="8.5" rx="1.5" fill="#141413"/>
  <rect x="130.75" y="40.75" width="8.5" height="8.5" rx="1.5" fill="#141413"/>
  <rect x="140.75" y="40.75" width="8.5" height="8.5" rx="1.5" fill="#141413"/>
  <rect x="160.75" y="0.75" width="8.5" height="8.5" rx="1.5" fill="#141413"/>
  <rect x="170.75" y="0.75" width="8.5" height="8.5" rx="1.5" fill="#141413"/>
  <rect x="180.75" y="0.75" width="8.5" height="8.5" rx="1.5" fill="#141413"/>
  <rect x="190.75" y="0.75" width="8.5" height="8.5" rx="1.5" fill="#141413"/>
  <rect x="200.75" y="0.75" width="8.5" height="8.5" rx="1.5" fill="#141413"/>
  <rect x="190.75" y="10.75" width="8.5" height="8.5" rx="1.5" fill="#141413"/>
  <rect x="180.75" y="20.75" width="8.5" height="8.5" rx="1.5" fill="#141413"/>
  <rect x="170.75" y="30.75" width="8.5" height="8.5" rx="1.5" fill="#141413"/>
  <rect x="160.75" y="40.75" width="8.5" height="8.5" rx="1.5" fill="#141413"/>
  <rect x="170.75" y="40.75" width="8.5" height="8.5" rx="1.5" fill="#141413"/>
  <rect x="180.75" y="40.75" width="8.5" height="8.5" rx="1.5" fill="#141413"/>
  <rect x="190.75" y="40.75" width="8.5" height="8.5" rx="1.5" fill="#141413"/>
  <rect x="200.75" y="40.75" width="8.5" height="8.5" rx="1.5" fill="#141413"/>
  <rect x="220.75" y="0.75" width="8.5" height="8.5" rx="1.5" fill="#141413"/>
  <rect x="230.75" y="0.75" width="8.5" height="8.5" rx="1.5" fill="#141413"/>
  <rect x="240.75" y="0.75" width="8.5" height="8.5" rx="1.5" fill="#141413"/>
  <rect x="230.75" y="10.75" width="8.5" height="8.5" rx="1.5" fill="#141413"/>
  <rect x="230.75" y="20.75" width="8.5" height="8.5" rx="1.5" fill="#141413"/>
  <rect x="230.75" y="30.75" width="8.5" height="8.5" rx="1.5" fill="#141413"/>
  <rect x="220.75" y="40.75" width="8.5" height="8.5" rx="1.5" fill="#141413"/>
  <rect x="230.75" y="40.75" width="8.5" height="8.5" rx="1.5" fill="#141413"/>
  <rect x="240.75" y="40.75" width="8.5" height="8.5" rx="1.5" fill="#141413"/>
  <rect x="290.75" y="0.75" width="8.5" height="8.5" rx="1.5" fill="#141413"/>
  <rect x="300.75" y="0.75" width="8.5" height="8.5" rx="1.5" fill="#141413"/>
  <rect x="310.75" y="0.75" width="8.5" height="8.5" rx="1.5" fill="#141413"/>
  <rect x="320.75" y="0.75" width="8.5" height="8.5" rx="1.5" fill="#141413"/>
  <rect x="280.75" y="10.75" width="8.5" height="8.5" rx="1.5" fill="#141413"/>
  <rect x="280.75" y="20.75" width="8.5" height="8.5" rx="1.5" fill="#141413"/>
  <rect x="280.75" y="30.75" width="8.5" height="8.5" rx="1.5" fill="#141413"/>
  <rect x="290.75" y="40.75" width="8.5" height="8.5" rx="1.5" fill="#141413"/>
  <rect x="300.75" y="40.75" width="8.5" height="8.5" rx="1.5" fill="#141413"/>
  <rect x="310.75" y="40.75" width="8.5" height="8.5" rx="1.5" fill="#141413"/>
  <rect x="320.75" y="40.75" width="8.5" height="8.5" rx="1.5" fill="#141413"/>
  <rect x="350.75" y="0.75" width="8.5" height="8.5" rx="1.5" fill="#141413"/>
  <rect x="360.75" y="0.75" width="8.5" height="8.5" rx="1.5" fill="#141413"/>
  <rect x="370.75" y="0.75" width="8.5" height="8.5" rx="1.5" fill="#141413"/>
  <rect x="340.75" y="10.75" width="8.5" height="8.5" rx="1.5" fill="#141413"/>
  <rect x="380.75" y="10.75" width="8.5" height="8.5" rx="1.5" fill="#141413"/>
  <rect x="340.75" y="20.75" width="8.5" height="8.5" rx="1.5" fill="#141413"/>
  <rect x="380.75" y="20.75" width="8.5" height="8.5" rx="1.5" fill="#141413"/>
  <rect x="340.75" y="30.75" width="8.5" height="8.5" rx="1.5" fill="#141413"/>
  <rect x="380.75" y="30.75" width="8.5" height="8.5" rx="1.5" fill="#141413"/>
  <rect x="350.75" y="40.75" width="8.5" height="8.5" rx="1.5" fill="#141413"/>
  <rect x="360.75" y="40.75" width="8.5" height="8.5" rx="1.5" fill="#141413"/>
  <rect x="370.75" y="40.75" width="8.5" height="8.5" rx="1.5" fill="#141413"/>
  <rect x="400.75" y="0.75" width="8.5" height="8.5" rx="1.5" fill="#141413"/>
  <rect x="410.75" y="0.75" width="8.5" height="8.5" rx="1.5" fill="#141413"/>
  <rect x="420.75" y="0.75" width="8.5" height="8.5" rx="1.5" fill="#141413"/>
  <rect x="430.75" y="0.75" width="8.5" height="8.5" rx="1.5" fill="#141413"/>
  <rect x="400.75" y="10.75" width="8.5" height="8.5" rx="1.5" fill="#141413"/>
  <rect x="440.75" y="10.75" width="8.5" height="8.5" rx="1.5" fill="#141413"/>
  <rect x="400.75" y="20.75" width="8.5" height="8.5" rx="1.5" fill="#141413"/>
  <rect x="440.75" y="20.75" width="8.5" height="8.5" rx="1.5" fill="#141413"/>
  <rect x="400.75" y="30.75" width="8.5" height="8.5" rx="1.5" fill="#141413"/>
  <rect x="440.75" y="30.75" width="8.5" height="8.5" rx="1.5" fill="#141413"/>
  <rect x="400.75" y="40.75" width="8.5" height="8.5" rx="1.5" fill="#141413"/>
  <rect x="410.75" y="40.75" width="8.5" height="8.5" rx="1.5" fill="#141413"/>
  <rect x="420.75" y="40.75" width="8.5" height="8.5" rx="1.5" fill="#141413"/>
  <rect x="430.75" y="40.75" width="8.5" height="8.5" rx="1.5" fill="#141413"/>
  <rect x="460.75" y="0.75" width="8.5" height="8.5" rx="1.5" fill="#141413"/>
  <rect x="470.75" y="0.75" width="8.5" height="8.5" rx="1.5" fill="#141413"/>
  <rect x="480.75" y="0.75" width="8.5" height="8.5" rx="1.5" fill="#141413"/>
  <rect x="490.75" y="0.75" width="8.5" height="8.5" rx="1.5" fill="#141413"/>
  <rect x="500.75" y="0.75" width="8.5" height="8.5" rx="1.5" fill="#141413"/>
  <rect x="460.75" y="10.75" width="8.5" height="8.5" rx="1.5" fill="#141413"/>
  <rect x="460.75" y="20.75" width="8.5" height="8.5" rx="1.5" fill="#141413"/>
  <rect x="470.75" y="20.75" width="8.5" height="8.5" rx="1.5" fill="#141413"/>
  <rect x="480.75" y="20.75" width="8.5" height="8.5" rx="1.5" fill="#141413"/>
  <rect x="490.75" y="20.75" width="8.5" height="8.5" rx="1.5" fill="#141413"/>
  <rect x="460.75" y="30.75" width="8.5" height="8.5" rx="1.5" fill="#141413"/>
  <rect x="460.75" y="40.75" width="8.5" height="8.5" rx="1.5" fill="#141413"/>
  <rect x="470.75" y="40.75" width="8.5" height="8.5" rx="1.5" fill="#141413"/>
  <rect x="480.75" y="40.75" width="8.5" height="8.5" rx="1.5" fill="#141413"/>
  <rect x="490.75" y="40.75" width="8.5" height="8.5" rx="1.5" fill="#141413"/>
  <rect x="500.75" y="40.75" width="8.5" height="8.5" rx="1.5" fill="#141413"/></g>
</svg>
